<?xml version="1.0" encoding="utf-8"?>
<!-- Generator: Adobe Illustrator 16.0.0, SVG Export Plug-In . SVG Version: 6.00 Build 0)  -->
<!DOCTYPE svg PUBLIC "-//W3C//DTD SVG 1.1//EN" "http://www.w3.org/Graphics/SVG/1.1/DTD/svg11.dtd">
<svg version="1.1" id="Layer_1" xmlns="http://www.w3.org/2000/svg" xmlns:xlink="http://www.w3.org/1999/xlink" x="0px" y="0px"
	 width="1345px" height="1345px" viewBox="0 0 1345 1345" enable-background="new 0 0 1345 1345" xml:space="preserve">
<g>
	<path fill="#E63822" d="M83.97,678.111c2.423,24.215,23.004,43.183,48.027,43.183c25.022,0,45.606-18.968,48.027-43.183
		c0-1.613,0.402-3.229,0.402-4.845c0-26.636-21.792-48.024-48.43-48.024c-26.636,0-48.027,21.792-48.027,48.024
		C83.97,674.48,83.97,676.498,83.97,678.111 M2.042,672.057c0-71.837,58.118-129.955,129.955-129.955
		c71.84,0,130.36,58.118,130.36,129.955c0,71.84-58.52,130.36-130.36,130.36C60.161,802.417,2.042,743.896,2.042,672.057"/>
	<path fill="#343435" d="M422.18,671.252c0,39.549-27.443,56.904-53.273,56.904c-29.06,0-51.256-21.392-51.256-54.89
		c0-35.918,23.406-56.904,52.868-56.904C401.596,616.362,422.18,638.559,422.18,671.252 M337.426,672.462
		c0,23.407,13.316,41.165,32.285,41.165c18.565,0,32.287-17.355,32.287-41.57c0-18.16-8.877-41.165-31.882-41.165
		S337.426,652.28,337.426,672.462"/>
	<path fill="#343435" d="M536.395,696.677c0,10.896,0.403,20.986,0.809,29.057h-17.355l-1.211-17.353h-0.405
		c-5.243,8.475-16.545,19.775-35.516,19.775c-16.95,0-36.727-9.282-36.727-46.816v-62.555h19.374v59.326
		c0,20.179,6.054,33.903,23.813,33.903c12.913,0,22.196-8.881,25.827-17.762c1.214-2.822,1.616-6.456,1.616-10.088v-65.38h19.37
		L536.395,696.677L536.395,696.677z"/>
	<path fill="#343435" d="M636.08,705.96c5.649,3.631,15.74,7.667,25.831,7.667c14.126,0,20.988-7.265,20.988-15.74
		c0-9.282-5.652-14.529-19.778-19.775c-19.373-6.859-28.251-17.353-28.251-30.27c0-17.355,13.722-31.479,36.727-31.479
		c10.897,0,20.18,3.229,26.231,6.457l-4.841,14.127c-4.037-2.826-12.109-6.055-21.793-6.055c-11.704,0-17.758,6.862-17.758,14.529
		c0,8.878,6.456,12.914,20.178,18.16c18.567,7.266,28.25,16.548,28.25,32.288c0,18.968-14.529,32.287-39.953,32.287
		c-11.703,0-22.603-3.229-30.27-7.667L636.08,705.96z"/>
	<path fill="#343435" d="M826.173,705.96c5.646,3.631,15.74,7.667,25.828,7.667c14.124,0,20.986-7.265,20.986-15.74
		c0-9.282-5.646-14.529-19.776-19.775c-19.37-6.859-28.248-17.353-28.248-30.27c0-17.355,13.719-31.479,36.727-31.479
		c10.893,0,20.176,3.229,26.232,6.457l-4.847,14.127c-4.036-2.826-12.103-6.055-21.791-6.055c-11.299,0-17.755,6.862-17.755,14.529
		c0,8.878,6.456,12.914,20.175,18.16c18.566,7.266,28.255,16.548,28.255,32.288c0,18.968-14.53,32.287-39.958,32.287
		c-11.703,0-22.603-3.229-30.27-7.667L826.173,705.96z"/>
	<path fill="#343435" d="M1094.562,647.842c0-10.896-0.405-20.179-0.812-29.057h16.951l0.811,17.353h0.805
		c6.052-10.091,15.74-19.775,33.501-19.775c14.529,0,25.827,8.88,30.264,21.392h0.405c3.231-6.055,7.667-10.493,12.108-13.725
		c6.457-4.842,13.319-7.667,23.813-7.667c14.124,0,35.11,9.282,35.11,46.411v62.96h-18.965v-60.536
		c0-20.584-7.673-33.096-23.008-33.096c-10.898,0-19.776,8.073-23.002,17.758c-0.811,2.826-1.615,6.055-1.615,9.686v66.188h-18.971
		v-64.17c0-16.95-7.668-29.462-22.197-29.462c-12.109,0-20.986,9.686-24.212,19.374c-1.216,2.823-1.616,6.052-1.616,9.686v64.572
		h-18.971L1094.562,647.842L1094.562,647.842z"/>
	<path fill="#343435" d="M1276.172,705.96c5.651,3.631,15.739,7.667,25.833,7.667c14.124,0,20.986-7.265,20.986-15.74
		c0-9.282-5.651-14.529-19.775-19.775c-19.377-6.859-28.255-17.353-28.255-30.27c0-17.355,13.725-31.479,36.727-31.479
		c10.898,0,20.182,3.229,26.233,6.457l-4.842,14.127c-4.036-2.826-12.108-6.055-21.791-6.055c-11.703,0-17.761,6.862-17.761,14.529
		c0,8.878,6.457,12.914,20.182,18.16c18.565,7.266,28.248,16.548,28.248,32.288c0,18.968-14.529,32.287-39.952,32.287
		c-11.703,0-22.602-3.229-30.269-7.667L1276.172,705.96z"/>
	<path fill="#343435" d="M791.462,618.38l-21.392,62.557c-2.82,7.668-4.841,16.548-6.856,22.197h-0.405
		c-1.615-5.649-4.441-14.932-6.862-21.794l-23.407-62.96h-21.392l39.552,98.878c0.812,2.424,1.211,4.036,1.211,5.25
		c0,1.21-0.805,2.822-1.616,4.841c-4.436,10.091-10.893,17.355-16.544,21.794c-5.652,4.845-12.109,8.073-16.95,9.686l5.246,16.146
		c4.841-1.21,14.124-4.441,23.407-12.512c13.319-11.301,22.602-30.27,36.727-66.995l29.059-76.279L791.462,618.38L791.462,618.38z"
		/>
	<path fill="#343435" d="M1069.938,675.69c0.405-2.019,0.811-5.247,0.811-9.283c0-19.776-9.283-50.448-44.394-50.448
		c-31.08,0-50.451,25.426-50.451,57.713c0,32.288,19.776,54.484,52.871,54.484c16.951,0,28.249-4.438,35.111-7.667l-4.842-14.935
		c-16.145,6.862-28.659,8.072-37.537,6.054c-3.631-0.808-7.262-2.018-10.493-4.036c-14.529-8.877-16.145-27.443-16.544-31.479
		c0-0.402,0-0.808,0-0.808h75.468V675.69z M1024.739,630.084c21.792,0,27.443,19.373,27.038,31.885H994.87
		C996.485,649.457,1004.964,630.084,1024.739,630.084"/>
	<path fill="#343435" d="M612.269,705.96c0,0-6.859,4.841-12.106,4.841c-6.862,0-11.301-4.841-11.301-17.758v-60.134h27.849v-14.124
		h-27.849v-37.939l-20.179,14.53v96.457c0,12.511,2.421,22.199,8.072,27.849c2.823,3.229,6.859,5.648,11.298,6.859
		c16.146,5.651,29.06-5.649,29.06-5.649L612.269,705.96z"/>
	<path fill="#343435" d="M959.354,705.96c0,0-6.856,4.841-12.103,4.841c-6.862,0-11.304-4.841-11.304-17.758v-60.134h27.849v-14.124
		h-27.849v-37.939l-20.176,14.53v96.457c0,12.511,2.42,22.199,8.066,27.849c2.826,3.229,6.862,5.648,11.304,6.859
		c16.14,5.651,29.06-5.649,29.06-5.649L959.354,705.96z"/>
</g>
</svg>
